<mxfile host="Electron" modified="2023-10-13T00:25:20.026Z" agent="Mozilla/5.0 (X11; Linux x86_64) AppleWebKit/537.36 (KHTML, like Gecko) draw.io/22.0.2 Chrome/114.0.5735.289 Electron/25.8.4 Safari/537.36" etag="Djozbj0AfoaIfILjH1is" version="22.0.2" type="device">
  <diagram name="第 1 页" id="3o7jmAqb7XPGnIdXW2B9">
    <mxGraphModel dx="986" dy="598" grid="1" gridSize="10" guides="1" tooltips="1" connect="1" arrows="1" fold="1" page="1" pageScale="1" pageWidth="827" pageHeight="1169" math="0" shadow="0">
      <root>
        <mxCell id="0" />
        <mxCell id="1" parent="0" />
        <mxCell id="wLXGLyostEBDccpKSfzg-116" value="" style="rounded=0;whiteSpace=wrap;html=1;fillColor=#e1d5e7;strokeColor=#9673a6;" vertex="1" parent="1">
          <mxGeometry x="160" y="840" width="40" height="40" as="geometry" />
        </mxCell>
        <mxCell id="wLXGLyostEBDccpKSfzg-112" value="" style="rounded=0;whiteSpace=wrap;html=1;fillColor=#e1d5e7;strokeColor=#9673a6;" vertex="1" parent="1">
          <mxGeometry x="200" y="840" width="40" height="40" as="geometry" />
        </mxCell>
        <mxCell id="wLXGLyostEBDccpKSfzg-1" value="W" style="rounded=0;whiteSpace=wrap;html=1;" vertex="1" parent="1">
          <mxGeometry x="160" y="360" width="40" height="40" as="geometry" />
        </mxCell>
        <mxCell id="wLXGLyostEBDccpKSfzg-2" value="F" style="rounded=0;whiteSpace=wrap;html=1;" vertex="1" parent="1">
          <mxGeometry x="200" y="360" width="40" height="40" as="geometry" />
        </mxCell>
        <mxCell id="wLXGLyostEBDccpKSfzg-3" value="P" style="rounded=0;whiteSpace=wrap;html=1;" vertex="1" parent="1">
          <mxGeometry x="240" y="360" width="40" height="40" as="geometry" />
        </mxCell>
        <mxCell id="wLXGLyostEBDccpKSfzg-4" value="B" style="rounded=0;whiteSpace=wrap;html=1;" vertex="1" parent="1">
          <mxGeometry x="280" y="360" width="40" height="40" as="geometry" />
        </mxCell>
        <mxCell id="wLXGLyostEBDccpKSfzg-7" value="R" style="rounded=0;whiteSpace=wrap;html=1;" vertex="1" parent="1">
          <mxGeometry x="160" y="400" width="40" height="40" as="geometry" />
        </mxCell>
        <mxCell id="wLXGLyostEBDccpKSfzg-8" value="S" style="rounded=0;whiteSpace=wrap;html=1;" vertex="1" parent="1">
          <mxGeometry x="200" y="400" width="40" height="40" as="geometry" />
        </mxCell>
        <mxCell id="wLXGLyostEBDccpKSfzg-9" value="T" style="rounded=0;whiteSpace=wrap;html=1;" vertex="1" parent="1">
          <mxGeometry x="240" y="400" width="40" height="40" as="geometry" />
        </mxCell>
        <mxCell id="wLXGLyostEBDccpKSfzg-10" value="G" style="rounded=0;whiteSpace=wrap;html=1;" vertex="1" parent="1">
          <mxGeometry x="280" y="400" width="40" height="40" as="geometry" />
        </mxCell>
        <mxCell id="wLXGLyostEBDccpKSfzg-11" value="X" style="rounded=0;whiteSpace=wrap;html=1;" vertex="1" parent="1">
          <mxGeometry x="160" y="440" width="40" height="40" as="geometry" />
        </mxCell>
        <mxCell id="wLXGLyostEBDccpKSfzg-12" value="C" style="rounded=0;whiteSpace=wrap;html=1;" vertex="1" parent="1">
          <mxGeometry x="200" y="440" width="40" height="40" as="geometry" />
        </mxCell>
        <mxCell id="wLXGLyostEBDccpKSfzg-13" value="D" style="rounded=0;whiteSpace=wrap;html=1;" vertex="1" parent="1">
          <mxGeometry x="240" y="440" width="40" height="40" as="geometry" />
        </mxCell>
        <mxCell id="wLXGLyostEBDccpKSfzg-14" value="V" style="rounded=0;whiteSpace=wrap;html=1;" vertex="1" parent="1">
          <mxGeometry x="280" y="440" width="40" height="40" as="geometry" />
        </mxCell>
        <mxCell id="wLXGLyostEBDccpKSfzg-15" value="Win" style="rounded=0;whiteSpace=wrap;html=1;" vertex="1" parent="1">
          <mxGeometry x="230" y="480" width="40" height="40" as="geometry" />
        </mxCell>
        <mxCell id="wLXGLyostEBDccpKSfzg-16" value="Alt" style="rounded=0;whiteSpace=wrap;html=1;" vertex="1" parent="1">
          <mxGeometry x="270" y="480" width="40" height="40" as="geometry" />
        </mxCell>
        <mxCell id="wLXGLyostEBDccpKSfzg-17" value="Space" style="rounded=0;whiteSpace=wrap;html=1;" vertex="1" parent="1">
          <mxGeometry x="310" y="480" width="40" height="80" as="geometry" />
        </mxCell>
        <mxCell id="wLXGLyostEBDccpKSfzg-42" value="J" style="rounded=0;whiteSpace=wrap;html=1;" vertex="1" parent="1">
          <mxGeometry x="440" y="360" width="40" height="40" as="geometry" />
        </mxCell>
        <mxCell id="wLXGLyostEBDccpKSfzg-43" value="L" style="rounded=0;whiteSpace=wrap;html=1;" vertex="1" parent="1">
          <mxGeometry x="480" y="360" width="40" height="40" as="geometry" />
        </mxCell>
        <mxCell id="wLXGLyostEBDccpKSfzg-44" value="U" style="rounded=0;whiteSpace=wrap;html=1;" vertex="1" parent="1">
          <mxGeometry x="520" y="360" width="40" height="40" as="geometry" />
        </mxCell>
        <mxCell id="wLXGLyostEBDccpKSfzg-45" value="Y" style="rounded=0;whiteSpace=wrap;html=1;" vertex="1" parent="1">
          <mxGeometry x="560" y="360" width="40" height="40" as="geometry" />
        </mxCell>
        <mxCell id="wLXGLyostEBDccpKSfzg-46" value="M" style="rounded=0;whiteSpace=wrap;html=1;" vertex="1" parent="1">
          <mxGeometry x="440" y="400" width="40" height="40" as="geometry" />
        </mxCell>
        <mxCell id="wLXGLyostEBDccpKSfzg-47" value="N" style="rounded=0;whiteSpace=wrap;html=1;" vertex="1" parent="1">
          <mxGeometry x="480" y="400" width="40" height="40" as="geometry" />
        </mxCell>
        <mxCell id="wLXGLyostEBDccpKSfzg-48" value="E" style="rounded=0;whiteSpace=wrap;html=1;" vertex="1" parent="1">
          <mxGeometry x="520" y="400" width="40" height="40" as="geometry" />
        </mxCell>
        <mxCell id="wLXGLyostEBDccpKSfzg-49" value="I" style="rounded=0;whiteSpace=wrap;html=1;" vertex="1" parent="1">
          <mxGeometry x="560" y="400" width="40" height="40" as="geometry" />
        </mxCell>
        <mxCell id="wLXGLyostEBDccpKSfzg-50" value="K" style="rounded=0;whiteSpace=wrap;html=1;" vertex="1" parent="1">
          <mxGeometry x="440" y="440" width="40" height="40" as="geometry" />
        </mxCell>
        <mxCell id="wLXGLyostEBDccpKSfzg-51" value="H" style="rounded=0;whiteSpace=wrap;html=1;" vertex="1" parent="1">
          <mxGeometry x="480" y="440" width="40" height="40" as="geometry" />
        </mxCell>
        <mxCell id="wLXGLyostEBDccpKSfzg-52" value="," style="rounded=0;whiteSpace=wrap;html=1;" vertex="1" parent="1">
          <mxGeometry x="520" y="440" width="40" height="40" as="geometry" />
        </mxCell>
        <mxCell id="wLXGLyostEBDccpKSfzg-53" value="." style="rounded=0;whiteSpace=wrap;html=1;" vertex="1" parent="1">
          <mxGeometry x="560" y="440" width="40" height="40" as="geometry" />
        </mxCell>
        <mxCell id="wLXGLyostEBDccpKSfzg-54" value="QT" style="rounded=0;whiteSpace=wrap;html=1;" vertex="1" parent="1">
          <mxGeometry x="450" y="480" width="40" height="40" as="geometry" />
        </mxCell>
        <mxCell id="wLXGLyostEBDccpKSfzg-55" value="TBD" style="rounded=0;whiteSpace=wrap;html=1;" vertex="1" parent="1">
          <mxGeometry x="490" y="480" width="40" height="40" as="geometry" />
        </mxCell>
        <mxCell id="wLXGLyostEBDccpKSfzg-56" value="Backspace" style="rounded=0;whiteSpace=wrap;html=1;" vertex="1" parent="1">
          <mxGeometry x="410" y="480" width="40" height="80" as="geometry" />
        </mxCell>
        <mxCell id="wLXGLyostEBDccpKSfzg-57" value="Tab" style="rounded=0;whiteSpace=wrap;html=1;" vertex="1" parent="1">
          <mxGeometry x="80" y="360" width="40" height="40" as="geometry" />
        </mxCell>
        <mxCell id="wLXGLyostEBDccpKSfzg-58" value="Q" style="rounded=0;whiteSpace=wrap;html=1;" vertex="1" parent="1">
          <mxGeometry x="120" y="360" width="40" height="40" as="geometry" />
        </mxCell>
        <mxCell id="wLXGLyostEBDccpKSfzg-59" value="Ctrl" style="rounded=0;whiteSpace=wrap;html=1;" vertex="1" parent="1">
          <mxGeometry x="80" y="400" width="40" height="40" as="geometry" />
        </mxCell>
        <mxCell id="wLXGLyostEBDccpKSfzg-60" value="A" style="rounded=0;whiteSpace=wrap;html=1;" vertex="1" parent="1">
          <mxGeometry x="120" y="400" width="40" height="40" as="geometry" />
        </mxCell>
        <mxCell id="wLXGLyostEBDccpKSfzg-61" value="Shift" style="rounded=0;whiteSpace=wrap;html=1;" vertex="1" parent="1">
          <mxGeometry x="80" y="440" width="40" height="40" as="geometry" />
        </mxCell>
        <mxCell id="wLXGLyostEBDccpKSfzg-62" value="Z" style="rounded=0;whiteSpace=wrap;html=1;" vertex="1" parent="1">
          <mxGeometry x="120" y="440" width="40" height="40" as="geometry" />
        </mxCell>
        <mxCell id="wLXGLyostEBDccpKSfzg-63" value=";" style="rounded=0;whiteSpace=wrap;html=1;" vertex="1" parent="1">
          <mxGeometry x="600" y="360" width="40" height="40" as="geometry" />
        </mxCell>
        <mxCell id="wLXGLyostEBDccpKSfzg-64" value="Del" style="rounded=0;whiteSpace=wrap;html=1;" vertex="1" parent="1">
          <mxGeometry x="640" y="360" width="40" height="40" as="geometry" />
        </mxCell>
        <mxCell id="wLXGLyostEBDccpKSfzg-65" value="O" style="rounded=0;whiteSpace=wrap;html=1;" vertex="1" parent="1">
          <mxGeometry x="600" y="400" width="40" height="40" as="geometry" />
        </mxCell>
        <mxCell id="wLXGLyostEBDccpKSfzg-66" value="Enter" style="rounded=0;whiteSpace=wrap;html=1;" vertex="1" parent="1">
          <mxGeometry x="640" y="400" width="40" height="40" as="geometry" />
        </mxCell>
        <mxCell id="wLXGLyostEBDccpKSfzg-67" value="/" style="rounded=0;whiteSpace=wrap;html=1;" vertex="1" parent="1">
          <mxGeometry x="600" y="440" width="40" height="40" as="geometry" />
        </mxCell>
        <mxCell id="wLXGLyostEBDccpKSfzg-68" value="&#39;" style="rounded=0;whiteSpace=wrap;html=1;" vertex="1" parent="1">
          <mxGeometry x="640" y="440" width="40" height="40" as="geometry" />
        </mxCell>
        <mxCell id="wLXGLyostEBDccpKSfzg-69" value="W" style="rounded=0;whiteSpace=wrap;html=1;" vertex="1" parent="1">
          <mxGeometry x="160" y="580" width="40" height="40" as="geometry" />
        </mxCell>
        <mxCell id="wLXGLyostEBDccpKSfzg-70" value="A" style="rounded=0;whiteSpace=wrap;html=1;" vertex="1" parent="1">
          <mxGeometry x="120" y="620" width="40" height="40" as="geometry" />
        </mxCell>
        <mxCell id="wLXGLyostEBDccpKSfzg-71" value="P" style="rounded=0;whiteSpace=wrap;html=1;" vertex="1" parent="1">
          <mxGeometry x="240" y="580" width="40" height="40" as="geometry" />
        </mxCell>
        <mxCell id="wLXGLyostEBDccpKSfzg-72" value="B" style="rounded=0;whiteSpace=wrap;html=1;" vertex="1" parent="1">
          <mxGeometry x="280" y="580" width="40" height="40" as="geometry" />
        </mxCell>
        <mxCell id="wLXGLyostEBDccpKSfzg-74" value="" style="rounded=0;whiteSpace=wrap;html=1;fillColor=#e1d5e7;strokeColor=#9673a6;" vertex="1" parent="1">
          <mxGeometry x="200" y="800" width="40" height="40" as="geometry" />
        </mxCell>
        <mxCell id="wLXGLyostEBDccpKSfzg-75" value="" style="rounded=0;whiteSpace=wrap;html=1;fillColor=#e1d5e7;strokeColor=#9673a6;" vertex="1" parent="1">
          <mxGeometry x="240" y="840" width="40" height="40" as="geometry" />
        </mxCell>
        <mxCell id="wLXGLyostEBDccpKSfzg-76" value="G" style="rounded=0;whiteSpace=wrap;html=1;" vertex="1" parent="1">
          <mxGeometry x="280" y="620" width="40" height="40" as="geometry" />
        </mxCell>
        <mxCell id="wLXGLyostEBDccpKSfzg-77" value="X" style="rounded=0;whiteSpace=wrap;html=1;" vertex="1" parent="1">
          <mxGeometry x="160" y="660" width="40" height="40" as="geometry" />
        </mxCell>
        <mxCell id="wLXGLyostEBDccpKSfzg-78" value="C" style="rounded=0;whiteSpace=wrap;html=1;" vertex="1" parent="1">
          <mxGeometry x="200" y="660" width="40" height="40" as="geometry" />
        </mxCell>
        <mxCell id="wLXGLyostEBDccpKSfzg-79" value="D" style="rounded=0;whiteSpace=wrap;html=1;" vertex="1" parent="1">
          <mxGeometry x="240" y="660" width="40" height="40" as="geometry" />
        </mxCell>
        <mxCell id="wLXGLyostEBDccpKSfzg-80" value="V" style="rounded=0;whiteSpace=wrap;html=1;" vertex="1" parent="1">
          <mxGeometry x="280" y="660" width="40" height="40" as="geometry" />
        </mxCell>
        <mxCell id="wLXGLyostEBDccpKSfzg-81" value="Win" style="rounded=0;whiteSpace=wrap;html=1;" vertex="1" parent="1">
          <mxGeometry x="230" y="700" width="40" height="40" as="geometry" />
        </mxCell>
        <mxCell id="wLXGLyostEBDccpKSfzg-82" value="Alt" style="rounded=0;whiteSpace=wrap;html=1;" vertex="1" parent="1">
          <mxGeometry x="270" y="700" width="40" height="40" as="geometry" />
        </mxCell>
        <mxCell id="wLXGLyostEBDccpKSfzg-83" value="Space" style="rounded=0;whiteSpace=wrap;html=1;" vertex="1" parent="1">
          <mxGeometry x="310" y="700" width="40" height="80" as="geometry" />
        </mxCell>
        <mxCell id="wLXGLyostEBDccpKSfzg-87" value="=&lt;br&gt;+" style="rounded=0;whiteSpace=wrap;html=1;fillColor=#e1d5e7;strokeColor=#9673a6;" vertex="1" parent="1">
          <mxGeometry x="440" y="580" width="40" height="40" as="geometry" />
        </mxCell>
        <mxCell id="wLXGLyostEBDccpKSfzg-91" value="_&lt;br&gt;-" style="rounded=0;whiteSpace=wrap;html=1;fillColor=#e1d5e7;strokeColor=#9673a6;" vertex="1" parent="1">
          <mxGeometry x="440" y="620" width="40" height="40" as="geometry" />
        </mxCell>
        <mxCell id="wLXGLyostEBDccpKSfzg-95" value="." style="rounded=0;whiteSpace=wrap;html=1;fillColor=#e1d5e7;strokeColor=#9673a6;" vertex="1" parent="1">
          <mxGeometry x="600" y="580" width="40" height="40" as="geometry" />
        </mxCell>
        <mxCell id="wLXGLyostEBDccpKSfzg-97" value="TBD" style="rounded=0;whiteSpace=wrap;html=1;" vertex="1" parent="1">
          <mxGeometry x="490" y="700" width="40" height="40" as="geometry" />
        </mxCell>
        <mxCell id="wLXGLyostEBDccpKSfzg-98" value="Backspace" style="rounded=0;whiteSpace=wrap;html=1;" vertex="1" parent="1">
          <mxGeometry x="410" y="700" width="40" height="80" as="geometry" />
        </mxCell>
        <mxCell id="wLXGLyostEBDccpKSfzg-99" value="Tab" style="rounded=0;whiteSpace=wrap;html=1;" vertex="1" parent="1">
          <mxGeometry x="80" y="580" width="40" height="40" as="geometry" />
        </mxCell>
        <mxCell id="wLXGLyostEBDccpKSfzg-100" value="Q" style="rounded=0;whiteSpace=wrap;html=1;" vertex="1" parent="1">
          <mxGeometry x="120" y="580" width="40" height="40" as="geometry" />
        </mxCell>
        <mxCell id="wLXGLyostEBDccpKSfzg-101" value="Ctrl" style="rounded=0;whiteSpace=wrap;html=1;" vertex="1" parent="1">
          <mxGeometry x="80" y="620" width="40" height="40" as="geometry" />
        </mxCell>
        <mxCell id="wLXGLyostEBDccpKSfzg-103" value="Shift" style="rounded=0;whiteSpace=wrap;html=1;" vertex="1" parent="1">
          <mxGeometry x="80" y="660" width="40" height="40" as="geometry" />
        </mxCell>
        <mxCell id="wLXGLyostEBDccpKSfzg-104" value="Z" style="rounded=0;whiteSpace=wrap;html=1;" vertex="1" parent="1">
          <mxGeometry x="120" y="660" width="40" height="40" as="geometry" />
        </mxCell>
        <mxCell id="wLXGLyostEBDccpKSfzg-105" value="0" style="rounded=0;whiteSpace=wrap;html=1;fillColor=#e1d5e7;strokeColor=#9673a6;" vertex="1" parent="1">
          <mxGeometry x="440" y="660" width="40" height="40" as="geometry" />
        </mxCell>
        <mxCell id="wLXGLyostEBDccpKSfzg-106" value="Del" style="rounded=0;whiteSpace=wrap;html=1;" vertex="1" parent="1">
          <mxGeometry x="640" y="580" width="40" height="40" as="geometry" />
        </mxCell>
        <mxCell id="wLXGLyostEBDccpKSfzg-107" value="^&lt;br&gt;*" style="rounded=0;whiteSpace=wrap;html=1;fillColor=#e1d5e7;strokeColor=#9673a6;" vertex="1" parent="1">
          <mxGeometry x="600" y="620" width="40" height="40" as="geometry" />
        </mxCell>
        <mxCell id="wLXGLyostEBDccpKSfzg-108" value="Enter" style="rounded=0;whiteSpace=wrap;html=1;" vertex="1" parent="1">
          <mxGeometry x="640" y="620" width="40" height="40" as="geometry" />
        </mxCell>
        <mxCell id="wLXGLyostEBDccpKSfzg-109" value="/" style="rounded=0;whiteSpace=wrap;html=1;fillColor=#e1d5e7;strokeColor=#9673a6;" vertex="1" parent="1">
          <mxGeometry x="600" y="660" width="40" height="40" as="geometry" />
        </mxCell>
        <mxCell id="wLXGLyostEBDccpKSfzg-110" value="&#39;" style="rounded=0;whiteSpace=wrap;html=1;fillColor=#e1d5e7;strokeColor=#9673a6;" vertex="1" parent="1">
          <mxGeometry x="640" y="660" width="40" height="40" as="geometry" />
        </mxCell>
        <mxCell id="wLXGLyostEBDccpKSfzg-111" value="" style="endArrow=classic;html=1;rounded=0;" edge="1" parent="1">
          <mxGeometry width="50" height="50" relative="1" as="geometry">
            <mxPoint x="220" y="850" as="sourcePoint" />
            <mxPoint x="220" y="870" as="targetPoint" />
          </mxGeometry>
        </mxCell>
        <mxCell id="wLXGLyostEBDccpKSfzg-113" value="" style="endArrow=classic;html=1;rounded=0;" edge="1" parent="1">
          <mxGeometry width="50" height="50" relative="1" as="geometry">
            <mxPoint x="219.89999999999998" y="830" as="sourcePoint" />
            <mxPoint x="219.89999999999998" y="810" as="targetPoint" />
          </mxGeometry>
        </mxCell>
        <mxCell id="wLXGLyostEBDccpKSfzg-115" value="" style="endArrow=classic;html=1;rounded=0;" edge="1" parent="1">
          <mxGeometry width="50" height="50" relative="1" as="geometry">
            <mxPoint x="250" y="859.9" as="sourcePoint" />
            <mxPoint x="270" y="859.9" as="targetPoint" />
          </mxGeometry>
        </mxCell>
        <mxCell id="wLXGLyostEBDccpKSfzg-117" value="" style="endArrow=classic;html=1;rounded=0;" edge="1" parent="1">
          <mxGeometry width="50" height="50" relative="1" as="geometry">
            <mxPoint x="190" y="859.9" as="sourcePoint" />
            <mxPoint x="170" y="859.9" as="targetPoint" />
          </mxGeometry>
        </mxCell>
        <mxCell id="wLXGLyostEBDccpKSfzg-118" value="Home" style="rounded=0;whiteSpace=wrap;html=1;fillColor=#e1d5e7;strokeColor=#9673a6;" vertex="1" parent="1">
          <mxGeometry x="160" y="620" width="40" height="40" as="geometry" />
        </mxCell>
        <mxCell id="wLXGLyostEBDccpKSfzg-119" value="PgDn" style="rounded=0;whiteSpace=wrap;html=1;fillColor=#e1d5e7;strokeColor=#9673a6;" vertex="1" parent="1">
          <mxGeometry x="200" y="620" width="40" height="40" as="geometry" />
        </mxCell>
        <mxCell id="wLXGLyostEBDccpKSfzg-120" value="PgUp" style="rounded=0;whiteSpace=wrap;html=1;fillColor=#e1d5e7;strokeColor=#9673a6;" vertex="1" parent="1">
          <mxGeometry x="200" y="580" width="40" height="40" as="geometry" />
        </mxCell>
        <mxCell id="wLXGLyostEBDccpKSfzg-121" value="End" style="rounded=0;whiteSpace=wrap;html=1;fillColor=#e1d5e7;strokeColor=#9673a6;" vertex="1" parent="1">
          <mxGeometry x="240" y="620" width="40" height="40" as="geometry" />
        </mxCell>
        <mxCell id="wLXGLyostEBDccpKSfzg-122" value="Prev" style="rounded=0;whiteSpace=wrap;html=1;fillColor=#e1d5e7;strokeColor=#9673a6;" vertex="1" parent="1">
          <mxGeometry x="160" y="800" width="40" height="40" as="geometry" />
        </mxCell>
        <mxCell id="wLXGLyostEBDccpKSfzg-123" value="VolDn" style="rounded=0;whiteSpace=wrap;html=1;fillColor=#e1d5e7;strokeColor=#9673a6;" vertex="1" parent="1">
          <mxGeometry x="120" y="840" width="40" height="40" as="geometry" />
        </mxCell>
        <mxCell id="wLXGLyostEBDccpKSfzg-124" value="VolUp" style="rounded=0;whiteSpace=wrap;html=1;fillColor=#e1d5e7;strokeColor=#9673a6;" vertex="1" parent="1">
          <mxGeometry x="120" y="800" width="40" height="40" as="geometry" />
        </mxCell>
        <mxCell id="wLXGLyostEBDccpKSfzg-125" value="Next" style="rounded=0;whiteSpace=wrap;html=1;fillColor=#e1d5e7;strokeColor=#9673a6;" vertex="1" parent="1">
          <mxGeometry x="240" y="800" width="40" height="40" as="geometry" />
        </mxCell>
        <mxCell id="wLXGLyostEBDccpKSfzg-126" value="7" style="rounded=0;whiteSpace=wrap;html=1;fillColor=#e1d5e7;strokeColor=#9673a6;" vertex="1" parent="1">
          <mxGeometry x="480" y="580" width="40" height="40" as="geometry" />
        </mxCell>
        <mxCell id="wLXGLyostEBDccpKSfzg-127" value="8" style="rounded=0;whiteSpace=wrap;html=1;fillColor=#e1d5e7;strokeColor=#9673a6;" vertex="1" parent="1">
          <mxGeometry x="520" y="580" width="40" height="40" as="geometry" />
        </mxCell>
        <mxCell id="wLXGLyostEBDccpKSfzg-128" value="9" style="rounded=0;whiteSpace=wrap;html=1;fillColor=#e1d5e7;strokeColor=#9673a6;" vertex="1" parent="1">
          <mxGeometry x="560" y="580" width="40" height="40" as="geometry" />
        </mxCell>
        <mxCell id="wLXGLyostEBDccpKSfzg-129" value="4" style="rounded=0;whiteSpace=wrap;html=1;fillColor=#e1d5e7;strokeColor=#9673a6;" vertex="1" parent="1">
          <mxGeometry x="480" y="620" width="40" height="40" as="geometry" />
        </mxCell>
        <mxCell id="wLXGLyostEBDccpKSfzg-130" value="5" style="rounded=0;whiteSpace=wrap;html=1;fillColor=#e1d5e7;strokeColor=#9673a6;" vertex="1" parent="1">
          <mxGeometry x="520" y="620" width="40" height="40" as="geometry" />
        </mxCell>
        <mxCell id="wLXGLyostEBDccpKSfzg-131" value="6" style="rounded=0;whiteSpace=wrap;html=1;fillColor=#e1d5e7;strokeColor=#9673a6;" vertex="1" parent="1">
          <mxGeometry x="560" y="620" width="40" height="40" as="geometry" />
        </mxCell>
        <mxCell id="wLXGLyostEBDccpKSfzg-132" value="1" style="rounded=0;whiteSpace=wrap;html=1;fillColor=#e1d5e7;strokeColor=#9673a6;" vertex="1" parent="1">
          <mxGeometry x="480" y="660" width="40" height="40" as="geometry" />
        </mxCell>
        <mxCell id="wLXGLyostEBDccpKSfzg-133" value="2" style="rounded=0;whiteSpace=wrap;html=1;fillColor=#e1d5e7;strokeColor=#9673a6;" vertex="1" parent="1">
          <mxGeometry x="520" y="660" width="40" height="40" as="geometry" />
        </mxCell>
        <mxCell id="wLXGLyostEBDccpKSfzg-134" value="3" style="rounded=0;whiteSpace=wrap;html=1;fillColor=#e1d5e7;strokeColor=#9673a6;" vertex="1" parent="1">
          <mxGeometry x="560" y="660" width="40" height="40" as="geometry" />
        </mxCell>
        <mxCell id="wLXGLyostEBDccpKSfzg-144" value="" style="rounded=0;whiteSpace=wrap;html=1;fillColor=#dae8fc;strokeColor=#6c8ebf;" vertex="1" parent="1">
          <mxGeometry x="450" y="700" width="40" height="20" as="geometry" />
        </mxCell>
        <mxCell id="wLXGLyostEBDccpKSfzg-145" value="" style="rounded=0;whiteSpace=wrap;html=1;fillColor=#fff2cc;strokeColor=#d6b656;" vertex="1" parent="1">
          <mxGeometry x="450" y="720" width="40" height="20" as="geometry" />
        </mxCell>
        <mxCell id="wLXGLyostEBDccpKSfzg-146" value="Tap" style="rounded=0;whiteSpace=wrap;html=1;fillColor=#dae8fc;strokeColor=#6c8ebf;" vertex="1" parent="1">
          <mxGeometry x="720" y="840" width="40" height="40" as="geometry" />
        </mxCell>
        <mxCell id="wLXGLyostEBDccpKSfzg-147" value="One&lt;br&gt;Shot" style="rounded=0;whiteSpace=wrap;html=1;fillColor=#d5e8d4;strokeColor=#82b366;" vertex="1" parent="1">
          <mxGeometry x="760" y="840" width="40" height="40" as="geometry" />
        </mxCell>
        <mxCell id="wLXGLyostEBDccpKSfzg-148" value="DTap" style="rounded=0;whiteSpace=wrap;html=1;fillColor=#ffe6cc;strokeColor=#d79b00;" vertex="1" parent="1">
          <mxGeometry x="800" y="840" width="40" height="40" as="geometry" />
        </mxCell>
        <mxCell id="wLXGLyostEBDccpKSfzg-149" value="Hold" style="rounded=0;whiteSpace=wrap;html=1;fillColor=#fff2cc;strokeColor=#d6b656;" vertex="1" parent="1">
          <mxGeometry x="840" y="840" width="40" height="40" as="geometry" />
        </mxCell>
        <mxCell id="wLXGLyostEBDccpKSfzg-200" value="Play/&lt;br&gt;Pause" style="rounded=0;whiteSpace=wrap;html=1;fillColor=#e1d5e7;strokeColor=#9673a6;" vertex="1" parent="1">
          <mxGeometry x="280" y="800" width="40" height="40" as="geometry" />
        </mxCell>
        <mxCell id="wLXGLyostEBDccpKSfzg-201" value="Mute" style="rounded=0;whiteSpace=wrap;html=1;fillColor=#e1d5e7;strokeColor=#9673a6;" vertex="1" parent="1">
          <mxGeometry x="280" y="840" width="40" height="40" as="geometry" />
        </mxCell>
        <mxCell id="wLXGLyostEBDccpKSfzg-202" value="X" style="rounded=0;whiteSpace=wrap;html=1;" vertex="1" parent="1">
          <mxGeometry x="160" y="880" width="40" height="40" as="geometry" />
        </mxCell>
        <mxCell id="wLXGLyostEBDccpKSfzg-203" value="C" style="rounded=0;whiteSpace=wrap;html=1;" vertex="1" parent="1">
          <mxGeometry x="200" y="880" width="40" height="40" as="geometry" />
        </mxCell>
        <mxCell id="wLXGLyostEBDccpKSfzg-204" value="D" style="rounded=0;whiteSpace=wrap;html=1;" vertex="1" parent="1">
          <mxGeometry x="240" y="880" width="40" height="40" as="geometry" />
        </mxCell>
        <mxCell id="wLXGLyostEBDccpKSfzg-205" value="V" style="rounded=0;whiteSpace=wrap;html=1;" vertex="1" parent="1">
          <mxGeometry x="280" y="880" width="40" height="40" as="geometry" />
        </mxCell>
        <mxCell id="wLXGLyostEBDccpKSfzg-206" value="Win" style="rounded=0;whiteSpace=wrap;html=1;fillColor=#fff2cc;strokeColor=#d6b656;" vertex="1" parent="1">
          <mxGeometry x="230" y="920" width="40" height="40" as="geometry" />
        </mxCell>
        <mxCell id="wLXGLyostEBDccpKSfzg-207" value="Alt" style="rounded=0;whiteSpace=wrap;html=1;" vertex="1" parent="1">
          <mxGeometry x="270" y="920" width="40" height="40" as="geometry" />
        </mxCell>
        <mxCell id="wLXGLyostEBDccpKSfzg-208" value="Space" style="rounded=0;whiteSpace=wrap;html=1;" vertex="1" parent="1">
          <mxGeometry x="310" y="920" width="40" height="80" as="geometry" />
        </mxCell>
        <mxCell id="wLXGLyostEBDccpKSfzg-209" value="=&lt;br&gt;+" style="rounded=0;whiteSpace=wrap;html=1;" vertex="1" parent="1">
          <mxGeometry x="440" y="800" width="40" height="40" as="geometry" />
        </mxCell>
        <mxCell id="wLXGLyostEBDccpKSfzg-210" value="_&lt;br&gt;-" style="rounded=0;whiteSpace=wrap;html=1;" vertex="1" parent="1">
          <mxGeometry x="440" y="840" width="40" height="40" as="geometry" />
        </mxCell>
        <mxCell id="wLXGLyostEBDccpKSfzg-211" value="." style="rounded=0;whiteSpace=wrap;html=1;" vertex="1" parent="1">
          <mxGeometry x="440" y="880" width="40" height="40" as="geometry" />
        </mxCell>
        <mxCell id="wLXGLyostEBDccpKSfzg-212" value="" style="rounded=0;whiteSpace=wrap;html=1;" vertex="1" parent="1">
          <mxGeometry x="490" y="920" width="40" height="40" as="geometry" />
        </mxCell>
        <mxCell id="wLXGLyostEBDccpKSfzg-213" value="Backspace" style="rounded=0;whiteSpace=wrap;html=1;" vertex="1" parent="1">
          <mxGeometry x="410" y="920" width="40" height="80" as="geometry" />
        </mxCell>
        <mxCell id="wLXGLyostEBDccpKSfzg-214" value="Tab" style="rounded=0;whiteSpace=wrap;html=1;" vertex="1" parent="1">
          <mxGeometry x="80" y="800" width="40" height="40" as="geometry" />
        </mxCell>
        <mxCell id="wLXGLyostEBDccpKSfzg-216" value="Ctrl" style="rounded=0;whiteSpace=wrap;html=1;fillColor=#fff2cc;strokeColor=#d6b656;" vertex="1" parent="1">
          <mxGeometry x="80" y="840" width="40" height="40" as="geometry" />
        </mxCell>
        <mxCell id="wLXGLyostEBDccpKSfzg-217" value="Shift" style="rounded=0;whiteSpace=wrap;html=1;" vertex="1" parent="1">
          <mxGeometry x="80" y="880" width="40" height="40" as="geometry" />
        </mxCell>
        <mxCell id="wLXGLyostEBDccpKSfzg-218" value="Z" style="rounded=0;whiteSpace=wrap;html=1;" vertex="1" parent="1">
          <mxGeometry x="120" y="880" width="40" height="40" as="geometry" />
        </mxCell>
        <mxCell id="wLXGLyostEBDccpKSfzg-219" value="0" style="rounded=0;whiteSpace=wrap;html=1;" vertex="1" parent="1">
          <mxGeometry x="600" y="800" width="40" height="40" as="geometry" />
        </mxCell>
        <mxCell id="wLXGLyostEBDccpKSfzg-220" value="Del" style="rounded=0;whiteSpace=wrap;html=1;" vertex="1" parent="1">
          <mxGeometry x="640" y="800" width="40" height="40" as="geometry" />
        </mxCell>
        <mxCell id="wLXGLyostEBDccpKSfzg-221" value="^&lt;br&gt;*" style="rounded=0;whiteSpace=wrap;html=1;" vertex="1" parent="1">
          <mxGeometry x="600" y="840" width="40" height="40" as="geometry" />
        </mxCell>
        <mxCell id="wLXGLyostEBDccpKSfzg-222" value="Enter" style="rounded=0;whiteSpace=wrap;html=1;" vertex="1" parent="1">
          <mxGeometry x="640" y="840" width="40" height="40" as="geometry" />
        </mxCell>
        <mxCell id="wLXGLyostEBDccpKSfzg-223" value="/" style="rounded=0;whiteSpace=wrap;html=1;" vertex="1" parent="1">
          <mxGeometry x="600" y="880" width="40" height="40" as="geometry" />
        </mxCell>
        <mxCell id="wLXGLyostEBDccpKSfzg-224" value="&#39;" style="rounded=0;whiteSpace=wrap;html=1;" vertex="1" parent="1">
          <mxGeometry x="640" y="880" width="40" height="40" as="geometry" />
        </mxCell>
        <mxCell id="wLXGLyostEBDccpKSfzg-229" value="7" style="rounded=0;whiteSpace=wrap;html=1;" vertex="1" parent="1">
          <mxGeometry x="480" y="800" width="40" height="40" as="geometry" />
        </mxCell>
        <mxCell id="wLXGLyostEBDccpKSfzg-230" value="8" style="rounded=0;whiteSpace=wrap;html=1;" vertex="1" parent="1">
          <mxGeometry x="520" y="800" width="40" height="40" as="geometry" />
        </mxCell>
        <mxCell id="wLXGLyostEBDccpKSfzg-231" value="9" style="rounded=0;whiteSpace=wrap;html=1;" vertex="1" parent="1">
          <mxGeometry x="560" y="800" width="40" height="40" as="geometry" />
        </mxCell>
        <mxCell id="wLXGLyostEBDccpKSfzg-232" value="4" style="rounded=0;whiteSpace=wrap;html=1;" vertex="1" parent="1">
          <mxGeometry x="480" y="840" width="40" height="40" as="geometry" />
        </mxCell>
        <mxCell id="wLXGLyostEBDccpKSfzg-233" value="5" style="rounded=0;whiteSpace=wrap;html=1;" vertex="1" parent="1">
          <mxGeometry x="520" y="840" width="40" height="40" as="geometry" />
        </mxCell>
        <mxCell id="wLXGLyostEBDccpKSfzg-234" value="6" style="rounded=0;whiteSpace=wrap;html=1;" vertex="1" parent="1">
          <mxGeometry x="560" y="840" width="40" height="40" as="geometry" />
        </mxCell>
        <mxCell id="wLXGLyostEBDccpKSfzg-235" value="1" style="rounded=0;whiteSpace=wrap;html=1;" vertex="1" parent="1">
          <mxGeometry x="480" y="880" width="40" height="40" as="geometry" />
        </mxCell>
        <mxCell id="wLXGLyostEBDccpKSfzg-236" value="2" style="rounded=0;whiteSpace=wrap;html=1;" vertex="1" parent="1">
          <mxGeometry x="520" y="880" width="40" height="40" as="geometry" />
        </mxCell>
        <mxCell id="wLXGLyostEBDccpKSfzg-237" value="3" style="rounded=0;whiteSpace=wrap;html=1;" vertex="1" parent="1">
          <mxGeometry x="560" y="880" width="40" height="40" as="geometry" />
        </mxCell>
        <mxCell id="wLXGLyostEBDccpKSfzg-240" value="" style="rounded=0;whiteSpace=wrap;html=1;" vertex="1" parent="1">
          <mxGeometry x="450" y="920" width="40" height="40" as="geometry" />
        </mxCell>
        <mxCell id="wLXGLyostEBDccpKSfzg-241" value="@" style="rounded=0;whiteSpace=wrap;html=1;" vertex="1" parent="1">
          <mxGeometry x="160" y="1060" width="40" height="40" as="geometry" />
        </mxCell>
        <mxCell id="wLXGLyostEBDccpKSfzg-242" value="$" style="rounded=0;whiteSpace=wrap;html=1;" vertex="1" parent="1">
          <mxGeometry x="200" y="1060" width="40" height="40" as="geometry" />
        </mxCell>
        <mxCell id="wLXGLyostEBDccpKSfzg-243" value="3" style="rounded=0;whiteSpace=wrap;html=1;fillColor=#e1d5e7;strokeColor=#9673a6;" vertex="1" parent="1">
          <mxGeometry x="200" y="1020" width="40" height="40" as="geometry" />
        </mxCell>
        <mxCell id="wLXGLyostEBDccpKSfzg-244" value="%" style="rounded=0;whiteSpace=wrap;html=1;" vertex="1" parent="1">
          <mxGeometry x="240" y="1060" width="40" height="40" as="geometry" />
        </mxCell>
        <mxCell id="wLXGLyostEBDccpKSfzg-249" value="2" style="rounded=0;whiteSpace=wrap;html=1;fillColor=#e1d5e7;strokeColor=#9673a6;" vertex="1" parent="1">
          <mxGeometry x="160" y="1020" width="40" height="40" as="geometry" />
        </mxCell>
        <mxCell id="wLXGLyostEBDccpKSfzg-250" value="!" style="rounded=0;whiteSpace=wrap;html=1;" vertex="1" parent="1">
          <mxGeometry x="120" y="1060" width="40" height="40" as="geometry" />
        </mxCell>
        <mxCell id="wLXGLyostEBDccpKSfzg-251" value="1" style="rounded=0;whiteSpace=wrap;html=1;fillColor=#e1d5e7;strokeColor=#9673a6;" vertex="1" parent="1">
          <mxGeometry x="120" y="1020" width="40" height="40" as="geometry" />
        </mxCell>
        <mxCell id="wLXGLyostEBDccpKSfzg-252" value="4" style="rounded=0;whiteSpace=wrap;html=1;fillColor=#e1d5e7;strokeColor=#9673a6;" vertex="1" parent="1">
          <mxGeometry x="240" y="1020" width="40" height="40" as="geometry" />
        </mxCell>
        <mxCell id="wLXGLyostEBDccpKSfzg-253" value="5" style="rounded=0;whiteSpace=wrap;html=1;fillColor=#e1d5e7;strokeColor=#9673a6;" vertex="1" parent="1">
          <mxGeometry x="280" y="1020" width="40" height="40" as="geometry" />
        </mxCell>
        <mxCell id="wLXGLyostEBDccpKSfzg-254" value="^" style="rounded=0;whiteSpace=wrap;html=1;" vertex="1" parent="1">
          <mxGeometry x="280" y="1060" width="40" height="40" as="geometry" />
        </mxCell>
        <mxCell id="wLXGLyostEBDccpKSfzg-255" value="X" style="rounded=0;whiteSpace=wrap;html=1;" vertex="1" parent="1">
          <mxGeometry x="160" y="1100" width="40" height="40" as="geometry" />
        </mxCell>
        <mxCell id="wLXGLyostEBDccpKSfzg-256" value="C" style="rounded=0;whiteSpace=wrap;html=1;" vertex="1" parent="1">
          <mxGeometry x="200" y="1100" width="40" height="40" as="geometry" />
        </mxCell>
        <mxCell id="wLXGLyostEBDccpKSfzg-257" value="D" style="rounded=0;whiteSpace=wrap;html=1;" vertex="1" parent="1">
          <mxGeometry x="240" y="1100" width="40" height="40" as="geometry" />
        </mxCell>
        <mxCell id="wLXGLyostEBDccpKSfzg-258" value="V" style="rounded=0;whiteSpace=wrap;html=1;" vertex="1" parent="1">
          <mxGeometry x="280" y="1100" width="40" height="40" as="geometry" />
        </mxCell>
        <mxCell id="wLXGLyostEBDccpKSfzg-259" value="Win" style="rounded=0;whiteSpace=wrap;html=1;fillColor=#fff2cc;strokeColor=#d6b656;" vertex="1" parent="1">
          <mxGeometry x="230" y="1140" width="40" height="40" as="geometry" />
        </mxCell>
        <mxCell id="wLXGLyostEBDccpKSfzg-260" value="Alt" style="rounded=0;whiteSpace=wrap;html=1;" vertex="1" parent="1">
          <mxGeometry x="270" y="1140" width="40" height="40" as="geometry" />
        </mxCell>
        <mxCell id="wLXGLyostEBDccpKSfzg-261" value="Space" style="rounded=0;whiteSpace=wrap;html=1;" vertex="1" parent="1">
          <mxGeometry x="310" y="1140" width="40" height="80" as="geometry" />
        </mxCell>
        <mxCell id="wLXGLyostEBDccpKSfzg-262" value="6" style="rounded=0;whiteSpace=wrap;html=1;" vertex="1" parent="1">
          <mxGeometry x="440" y="1020" width="40" height="40" as="geometry" />
        </mxCell>
        <mxCell id="wLXGLyostEBDccpKSfzg-263" value="&amp;amp;" style="rounded=0;whiteSpace=wrap;html=1;" vertex="1" parent="1">
          <mxGeometry x="440" y="1060" width="40" height="40" as="geometry" />
        </mxCell>
        <mxCell id="wLXGLyostEBDccpKSfzg-264" value="." style="rounded=0;whiteSpace=wrap;html=1;" vertex="1" parent="1">
          <mxGeometry x="440" y="1100" width="40" height="40" as="geometry" />
        </mxCell>
        <mxCell id="wLXGLyostEBDccpKSfzg-265" value="" style="rounded=0;whiteSpace=wrap;html=1;" vertex="1" parent="1">
          <mxGeometry x="490" y="1140" width="40" height="40" as="geometry" />
        </mxCell>
        <mxCell id="wLXGLyostEBDccpKSfzg-266" value="Backspace" style="rounded=0;whiteSpace=wrap;html=1;" vertex="1" parent="1">
          <mxGeometry x="410" y="1140" width="40" height="80" as="geometry" />
        </mxCell>
        <mxCell id="wLXGLyostEBDccpKSfzg-267" value="Esc" style="rounded=0;whiteSpace=wrap;html=1;" vertex="1" parent="1">
          <mxGeometry x="80" y="1020" width="40" height="40" as="geometry" />
        </mxCell>
        <mxCell id="wLXGLyostEBDccpKSfzg-268" value="Ctrl" style="rounded=0;whiteSpace=wrap;html=1;" vertex="1" parent="1">
          <mxGeometry x="80" y="1060" width="40" height="40" as="geometry" />
        </mxCell>
        <mxCell id="wLXGLyostEBDccpKSfzg-269" value="Shift" style="rounded=0;whiteSpace=wrap;html=1;" vertex="1" parent="1">
          <mxGeometry x="80" y="1100" width="40" height="40" as="geometry" />
        </mxCell>
        <mxCell id="wLXGLyostEBDccpKSfzg-270" value="Z" style="rounded=0;whiteSpace=wrap;html=1;" vertex="1" parent="1">
          <mxGeometry x="120" y="1100" width="40" height="40" as="geometry" />
        </mxCell>
        <mxCell id="wLXGLyostEBDccpKSfzg-271" value="0" style="rounded=0;whiteSpace=wrap;html=1;" vertex="1" parent="1">
          <mxGeometry x="600" y="1020" width="40" height="40" as="geometry" />
        </mxCell>
        <mxCell id="wLXGLyostEBDccpKSfzg-272" value="Del" style="rounded=0;whiteSpace=wrap;html=1;" vertex="1" parent="1">
          <mxGeometry x="640" y="1020" width="40" height="40" as="geometry" />
        </mxCell>
        <mxCell id="wLXGLyostEBDccpKSfzg-273" value="^&lt;br&gt;*" style="rounded=0;whiteSpace=wrap;html=1;" vertex="1" parent="1">
          <mxGeometry x="600" y="1060" width="40" height="40" as="geometry" />
        </mxCell>
        <mxCell id="wLXGLyostEBDccpKSfzg-274" value="Enter" style="rounded=0;whiteSpace=wrap;html=1;" vertex="1" parent="1">
          <mxGeometry x="640" y="1060" width="40" height="40" as="geometry" />
        </mxCell>
        <mxCell id="wLXGLyostEBDccpKSfzg-275" value="/" style="rounded=0;whiteSpace=wrap;html=1;" vertex="1" parent="1">
          <mxGeometry x="600" y="1100" width="40" height="40" as="geometry" />
        </mxCell>
        <mxCell id="wLXGLyostEBDccpKSfzg-276" value="&#39;" style="rounded=0;whiteSpace=wrap;html=1;" vertex="1" parent="1">
          <mxGeometry x="640" y="1100" width="40" height="40" as="geometry" />
        </mxCell>
        <mxCell id="wLXGLyostEBDccpKSfzg-277" value="7" style="rounded=0;whiteSpace=wrap;html=1;" vertex="1" parent="1">
          <mxGeometry x="480" y="1020" width="40" height="40" as="geometry" />
        </mxCell>
        <mxCell id="wLXGLyostEBDccpKSfzg-278" value="8" style="rounded=0;whiteSpace=wrap;html=1;" vertex="1" parent="1">
          <mxGeometry x="520" y="1020" width="40" height="40" as="geometry" />
        </mxCell>
        <mxCell id="wLXGLyostEBDccpKSfzg-279" value="9" style="rounded=0;whiteSpace=wrap;html=1;" vertex="1" parent="1">
          <mxGeometry x="560" y="1020" width="40" height="40" as="geometry" />
        </mxCell>
        <mxCell id="wLXGLyostEBDccpKSfzg-280" value="*" style="rounded=0;whiteSpace=wrap;html=1;" vertex="1" parent="1">
          <mxGeometry x="480" y="1060" width="40" height="40" as="geometry" />
        </mxCell>
        <mxCell id="wLXGLyostEBDccpKSfzg-281" value="\" style="rounded=0;whiteSpace=wrap;html=1;" vertex="1" parent="1">
          <mxGeometry x="520" y="1060" width="40" height="40" as="geometry" />
        </mxCell>
        <mxCell id="wLXGLyostEBDccpKSfzg-282" value="|" style="rounded=0;whiteSpace=wrap;html=1;" vertex="1" parent="1">
          <mxGeometry x="560" y="1060" width="40" height="40" as="geometry" />
        </mxCell>
        <mxCell id="wLXGLyostEBDccpKSfzg-283" value="1" style="rounded=0;whiteSpace=wrap;html=1;" vertex="1" parent="1">
          <mxGeometry x="480" y="1100" width="40" height="40" as="geometry" />
        </mxCell>
        <mxCell id="wLXGLyostEBDccpKSfzg-284" value="2" style="rounded=0;whiteSpace=wrap;html=1;" vertex="1" parent="1">
          <mxGeometry x="520" y="1100" width="40" height="40" as="geometry" />
        </mxCell>
        <mxCell id="wLXGLyostEBDccpKSfzg-285" value="3" style="rounded=0;whiteSpace=wrap;html=1;" vertex="1" parent="1">
          <mxGeometry x="560" y="1100" width="40" height="40" as="geometry" />
        </mxCell>
        <mxCell id="wLXGLyostEBDccpKSfzg-286" value="" style="rounded=0;whiteSpace=wrap;html=1;" vertex="1" parent="1">
          <mxGeometry x="450" y="1140" width="40" height="40" as="geometry" />
        </mxCell>
      </root>
    </mxGraphModel>
  </diagram>
</mxfile>
